<?xml version="1.0" encoding="UTF-8"?>
<svg width="1261px" height="283px" viewBox="0 0 1261 283" version="1.1" xmlns="http://www.w3.org/2000/svg" xmlns:xlink="http://www.w3.org/1999/xlink">
    <title>Print_Transparent</title>
    <g id="Page-1" stroke="none" stroke-width="1" fill="none" fill-rule="evenodd">
        <g id="Print_Transparent" transform="translate(-49, -406)">
            <g id="background-logo" fill="#FFFFFF" fill-opacity="0" fill-rule="nonzero">
                <rect id="Rectangle" x="0" y="0" width="1280" height="1024"></rect>
            </g>
            <g id="Group" transform="translate(48.8053, 405.5913)">
                <g fill="#FF0000" id="Shape">
                    <path d="M249.078571,122.921717 L292.854311,97.6466401 L255.855239,60.6453154 L481.499338,47.1009922 L373.631375,109.377394 L329.857888,134.650218 L286.082149,159.925294 C180.257549,221.023439 58.2054448,234.295164 13.4812425,189.566455 C7.11459957,183.202065 2.65840009,176.004109 0,168.164082 C55.616884,192.544765 158.314484,175.323739 249.078571,122.921717 L249.078571,122.921717 Z M343.528373,0 L347.484433,18.4263173 L331.142031,27.8208328 L349.89051,29.7538051 L353.772225,48.1981454 L361.40724,30.9658553 L380.146708,32.9709198 L366.115762,20.3863241 L373.813858,3.18332147 L357.509755,12.636412 L343.528373,0 L343.528373,0 Z M324.28426,65.2186647 L328.238066,83.6472348 L311.897917,93.0394975 L330.644144,94.9724698 L334.530364,113.41681 L342.163127,96.18452 L360.902594,98.1895845 L346.871649,85.6049888 L354.571998,68.4019861 L338.267895,77.8573295 L324.28426,65.2186647 L324.28426,65.2186647 Z"></path>
                </g>
                <g transform="translate(55.5065, 65.6017)" fill="#003399" id="Path">
                    <path d="M286.082149,149.82788 L329.857888,124.552803 L366.859213,161.556381 L444.493507,0 L336.627797,62.2764015 L292.854311,87.5492255 L249.078571,112.824302 C158.312231,165.226324 55.6146311,182.44735 0,158.066667 C2.65614721,165.906695 7.11234669,173.104651 13.4789896,179.471294 C58.2054448,224.197749 180.257549,210.926024 286.082149,149.82788 Z"></path>
                </g>
            </g>
            <g id="text-logo" transform="translate(558.7967, 470.903)" fill="#FF0000" fill-rule="nonzero">
                <g id="text-logo-path-0">
                    <path d="M110.677673,152.674096 L150.003692,152.674096 L94.5591923,1.55613462 L55.2331731,1.55613462 L0,152.674096 L39.3260192,152.674096 L49.0470577,126.3735 L100.956635,126.3735 L110.677673,152.674096 Z M61.6306154,91.4661346 L75.1171154,55.0218462 L88.1425385,91.4661346 L61.6306154,91.4661346 Z M190.655308,77.7875192 C190.655308,120.859788 226.004538,155.767154 268.654154,155.767154 C297.144865,155.767154 324.098654,139.418135 337.354615,114.231808 L304.887115,96.5571923 C298.239923,110.024481 283.658365,118.861788 268.654154,118.861788 C246.099808,118.861788 227.330135,100.092115 227.330135,77.7875192 C227.330135,55.2331731 246.330346,36.6748269 268.654154,36.6748269 C283.658365,36.6748269 297.356192,44.6476154 304.656577,57.8843654 L336.91275,40.6708269 C323.42625,15.4652885 297.144865,0 268.654154,0 C225.793212,0 190.655308,34.4655 190.655308,77.7875192 Z M517.193827,1.76746154 L516.963288,1.55613462 L477.425942,67.6246154 L437.888596,1.55613462 L400.983231,1.55613462 L400.983231,152.674096 L437.888596,152.674096 L437.888596,68.931 L473.007288,127.929635 L482.075135,127.929635 L517.193827,68.931 L517.193827,152.674096 L553.868654,152.674096 L553.868654,1.55613462 L517.193827,1.55613462 L517.193827,1.76746154 Z M662.337,117.997269 L662.337,92.7917308 L714.918981,92.7917308 L714.918981,58.1149038 L662.337,58.1149038 L662.337,36.4635 L720.240577,36.4635 L720.240577,1.55613462 L625.450846,1.55613462 L625.450846,152.674096 L721.335635,152.674096 L721.335635,117.997269 L662.337,117.997269 Z" id="Shape"></path>
                </g>
            </g>
        </g>
    </g>
</svg>