<?xml version="1.0" standalone="no"?>
<!DOCTYPE svg PUBLIC "-//W3C//DTD SVG 20010904//EN"
 "http://www.w3.org/TR/2001/REC-SVG-20010904/DTD/svg10.dtd">
<svg version="1.0" xmlns="http://www.w3.org/2000/svg"
 width="501.000000pt" height="501.000000pt" viewBox="0 0 501.000000 501.000000"
 preserveAspectRatio="xMidYMid meet">
<metadata>
Created by potrace 1.14, written by Peter Selinger 2001-2017
</metadata>
<g transform="translate(0.000000,501.000000) scale(0.100000,-0.100000)"
fill="#000000" stroke="none">
<path d="M3450 3848 c0 -9 7 -50 16 -93 9 -42 14 -78 12 -79 -1 -2 -30 -18
-63 -36 -33 -18 -69 -39 -79 -46 -19 -13 -19 -13 0 -12 34 2 159 -13 166 -21
4 -3 15 -42 24 -86 9 -44 18 -82 19 -83 3 -4 39 71 64 134 l12 30 89 -11 c50
-6 90 -9 90 -7 0 2 -30 32 -66 66 l-67 62 30 59 c55 109 54 111 -32 60 -41
-25 -78 -45 -81 -45 -5 0 -82 69 -115 104 -16 16 -19 17 -19 4z"/>
<path d="M4667 3384 c-1 -1 -60 -5 -132 -8 -71 -4 -152 -9 -180 -11 -53 -4
-193 -12 -340 -20 -49 -3 -126 -7 -170 -10 -94 -6 -205 -13 -330 -20 -49 -3
-124 -8 -165 -10 -41 -3 -113 -7 -160 -10 -47 -3 -116 -7 -155 -10 -38 -2
-126 -7 -195 -11 -69 -4 -136 -8 -150 -9 -14 -2 -47 -3 -75 -4 l-50 -1 183
-183 c100 -100 182 -185 182 -189 0 -4 -12 -13 -27 -21 -16 -8 -131 -74 -258
-147 -415 -239 -644 -347 -972 -456 -604 -201 -1208 -244 -1578 -113 -44 15
-81 27 -82 25 -1 -1 9 -26 23 -56 65 -140 212 -261 400 -329 46 -17 94 -32
106 -35 13 -2 41 -9 63 -14 155 -42 475 -49 720 -16 315 41 735 154 980 264
11 4 74 32 140 60 172 74 289 138 840 455 270 156 506 292 525 303 185 106
996 575 999 578 4 3 -138 1 -142 -2z m-1342 -239 c33 -30 63 -55 67 -55 4 0
42 20 84 45 42 25 74 40 71 33 -3 -7 -20 -46 -37 -87 l-32 -74 68 -64 c55 -51
64 -63 44 -59 -14 2 -55 8 -92 11 l-67 7 -39 -84 c-43 -91 -40 -92 -62 22 -6
30 -14 60 -18 66 -6 10 -84 22 -150 24 -34 0 -19 15 58 57 39 21 70 43 70 48
-1 6 -9 45 -19 88 -10 42 -16 77 -12 77 3 0 33 -25 66 -55z"/>
<path d="M4913 3154 c-40 -24 -162 -95 -270 -157 -109 -63 -360 -208 -558
-322 -555 -320 -598 -345 -604 -345 -2 0 -12 -6 -20 -14 -9 -7 -41 -27 -71
-43 -30 -17 -138 -79 -240 -137 -344 -199 -693 -357 -990 -450 -112 -34 -363
-99 -431 -110 -19 -3 -44 -8 -56 -10 -11 -3 -43 -8 -70 -12 -26 -3 -55 -8 -64
-9 -109 -20 -469 -27 -599 -13 -114 13 -155 23 -363 85 -15 5 -13 -4 14 -53
64 -121 163 -216 294 -283 68 -36 218 -86 285 -96 24 -4 47 -8 51 -10 43 -27
543 -27 699 0 14 2 43 7 65 10 22 3 47 7 55 10 8 2 33 6 55 10 72 10 323 75
453 116 295 95 612 238 927 419 99 57 227 130 284 163 l104 59 183 -183 c101
-101 186 -181 188 -178 3 3 34 65 69 139 67 142 131 273 255 530 41 85 96 200
122 255 26 55 80 168 120 250 120 248 200 417 200 421 0 9 -19 0 -87 -42z"/>
</g>
</svg>
