<?xml version="1.0" encoding="UTF-8"?>
<svg width="1272px" height="324px" viewBox="0 0 1272 324" version="1.1" xmlns="http://www.w3.org/2000/svg" xmlns:xlink="http://www.w3.org/1999/xlink">
    <title>Slice</title>
    <g id="Page-1" stroke="none" stroke-width="1" fill="none" fill-rule="evenodd">
        <g id="Print_Transparent" transform="translate(0, -357)">
            <g id="background-logo" fill="#FFFFFF" fill-opacity="0" fill-rule="nonzero">
                <rect id="Rectangle" x="0" y="0" width="1280" height="1024"></rect>
            </g>
            <g id="Group" transform="translate(48.8053, 405.5913)">
                <g fill="#FF0000" id="Shape">
                    <path d="M195.510733,96.4856785 L229.871886,76.6463613 L200.829983,47.6026902 L377.946155,36.9712635 L293.27671,85.8542519 L258.917325,105.691801 L224.556173,125.531118 C141.490637,173.48925 45.6875479,183.906704 10.5819123,148.797532 C5.5845052,143.801893 2.08667389,138.151958 0,131.998039 C43.6556934,151.135314 124.266735,137.617911 195.510733,96.4856785 L195.510733,96.4856785 Z M269.647781,0 L272.753034,14.4634794 L259.925295,21.8375727 L274.641651,23.3548322 L277.688549,37.8324586 L283.681547,24.3062141 L298.390829,25.8800613 L287.377435,16.0019593 L293.419948,2.49870356 L280.622271,9.91877444 L269.647781,0 L269.647781,0 Z M254.542384,51.1924766 L257.645869,65.6577244 L244.819898,73.0300493 L259.534486,74.5473088 L262.58492,89.0249352 L268.57615,75.4986907 L283.285432,77.0725379 L272.272038,67.1944359 L278.316319,53.6911802 L265.518642,61.1130194 L254.542384,51.1924766 L254.542384,51.1924766 Z"></path>
                </g>
                <g transform="translate(43.569, 51.4931)" fill="#003399" id="Path">
                    <path d="M224.556173,117.605294 L258.917325,97.7659768 L287.960997,126.811416 L348.898948,0 L264.23127,48.8829884 L229.871886,68.7205373 L195.510733,88.5598545 C124.264967,129.692087 43.6539251,143.20949 0,124.072215 C2.08490552,130.226134 5.58273683,135.876069 10.580144,140.873476 C45.6875479,175.98088 141.490637,165.563426 224.556173,117.605294 Z"></path>
                </g>
            </g>
            <g id="text-logo" transform="translate(501.7967, 428.903)" fill="#FF0000" fill-rule="nonzero">
                <g id="text-logo-path-0">
                    <path d="M110.677673,152.674096 L150.003692,152.674096 L94.5591923,1.55613462 L55.2331731,1.55613462 L0,152.674096 L39.3260192,152.674096 L49.0470577,126.3735 L100.956635,126.3735 L110.677673,152.674096 Z M61.6306154,91.4661346 L75.1171154,55.0218462 L88.1425385,91.4661346 L61.6306154,91.4661346 Z M190.655308,77.7875192 C190.655308,120.859788 226.004538,155.767154 268.654154,155.767154 C297.144865,155.767154 324.098654,139.418135 337.354615,114.231808 L304.887115,96.5571923 C298.239923,110.024481 283.658365,118.861788 268.654154,118.861788 C246.099808,118.861788 227.330135,100.092115 227.330135,77.7875192 C227.330135,55.2331731 246.330346,36.6748269 268.654154,36.6748269 C283.658365,36.6748269 297.356192,44.6476154 304.656577,57.8843654 L336.91275,40.6708269 C323.42625,15.4652885 297.144865,0 268.654154,0 C225.793212,0 190.655308,34.4655 190.655308,77.7875192 Z M517.193827,1.76746154 L516.963288,1.55613462 L477.425942,67.6246154 L437.888596,1.55613462 L400.983231,1.55613462 L400.983231,152.674096 L437.888596,152.674096 L437.888596,68.931 L473.007288,127.929635 L482.075135,127.929635 L517.193827,68.931 L517.193827,152.674096 L553.868654,152.674096 L553.868654,1.55613462 L517.193827,1.55613462 L517.193827,1.76746154 Z M662.337,117.997269 L662.337,92.7917308 L714.918981,92.7917308 L714.918981,58.1149038 L662.337,58.1149038 L662.337,36.4635 L720.240577,36.4635 L720.240577,1.55613462 L625.450846,1.55613462 L625.450846,152.674096 L721.335635,152.674096 L721.335635,117.997269 L662.337,117.997269 Z" id="Shape"></path>
                </g>
            </g>
        </g>
    </g>
</svg>